<svg width="42" height="36" viewBox="0 0 42 36" fill="none" xmlns="http://www.w3.org/2000/svg">
<path d="M6.1476 16.2002H39.5982C40.0755 16.2002 40.5333 16.3898 40.8708 16.7274C41.2083 17.0649 41.3979 17.5227 41.3979 18C41.3979 18.4773 41.2083 18.9351 40.8708 19.2726C40.5333 19.6102 40.0755 19.7998 39.5982 19.7998H6.1476L19.2751 32.9237C19.6131 33.2617 19.803 33.72 19.803 34.198C19.803 34.6759 19.6131 35.1342 19.2751 35.4722C18.9372 35.8101 18.4788 36 18.0009 36C17.523 36 17.0646 35.8101 16.7267 35.4722L0.528713 19.2742C0.361107 19.1071 0.22813 18.9084 0.137398 18.6898C0.0466652 18.4711 -3.8147e-05 18.2367 -3.8147e-05 18C-3.8147e-05 17.7633 0.0466652 17.5289 0.137398 17.3102C0.22813 17.0916 0.361107 16.8929 0.528713 16.7258L16.7267 0.527807C17.0646 0.189857 17.523 0 18.0009 0C18.4788 0 18.9372 0.189857 19.2751 0.527807C19.6131 0.865756 19.803 1.32411 19.803 1.80205C19.803 2.27998 19.6131 2.73834 19.2751 3.07629L6.1476 16.2002Z" fill="#333333"/>
</svg>
