<svg width="60" height="64" viewBox="0 0 60 64" fill="none" xmlns="http://www.w3.org/2000/svg">
<path d="M59.0378 42.1975C59.3718 40.4711 59.4246 38.955 59.3187 37.6307C59.3187 37.6307 59.3273 37.6609 59.3316 37.676C59.3196 37.4836 59.2856 37.3138 59.2648 37.1402C59.2314 36.8723 59.2023 36.6195 59.16 36.3704C59.1221 36.1364 59.0533 35.9439 59.0064 35.7287C58.8782 35.2266 58.7323 34.7622 58.5555 34.3392C58.4995 34.1919 58.4435 34.0446 58.3918 33.9124C58.2838 33.682 58.1713 33.4855 58.0544 33.2739C57.9722 33.134 57.903 32.9905 57.8208 32.8507C57.6951 32.6579 57.5737 32.4802 57.4522 32.3025C57.3611 32.1815 57.2657 32.0454 57.1789 31.9395C57.0486 31.7807 56.9183 31.6218 56.7749 31.4667C56.6749 31.3646 56.5749 31.2624 56.4749 31.1602C56.3358 31.0202 56.1967 30.8802 56.0487 30.759C55.953 30.6719 55.8441 30.5886 55.7484 30.5015C55.6004 30.3804 55.4524 30.2592 55.3087 30.1531C55.2216 30.0962 55.1344 30.0394 55.0473 29.9825C54.7468 29.774 54.4373 29.5844 54.1496 29.4213C54.0799 29.3758 53.997 29.334 53.9273 29.2885C53.7922 29.2126 53.6614 29.1519 53.5305 29.0911C53.4345 29.0531 53.3474 28.9962 53.2645 28.9545C53.1511 28.905 53.0376 28.8556 52.9416 28.8176C52.8456 28.7795 52.7671 28.7529 52.6842 28.7111C52.5882 28.6731 52.5096 28.6464 52.4311 28.6198C52.3525 28.5931 52.2871 28.5627 52.2128 28.5511C52.1516 28.5359 52.0862 28.5055 52.0251 28.4902C51.9639 28.4749 51.9028 28.4596 51.8548 28.4406C51.8242 28.433 51.7936 28.4253 51.7631 28.4177C51.7019 28.4024 51.6713 28.3948 51.6713 28.3948C57.2718 21.5032 55.382 19.347 52.0793 14.263C51.802 13.8358 51.5246 13.4087 51.2344 12.9363C49.6315 10.3398 49.1163 8.72372 48.8793 7.38771C48.7482 6.62537 48.6866 5.95756 48.5684 5.24052C48.547 5.16502 48.5345 5.07067 48.5262 4.99143C48.4962 4.88572 48.4836 4.79137 48.4668 4.68193C48.4368 4.57622 48.4025 4.45541 48.3857 4.34597C48.36 4.25536 48.33 4.14969 48.3043 4.05908C48.2658 3.92317 48.2272 3.78723 48.1755 3.65504C48.1498 3.56443 48.1198 3.45872 48.081 3.37184C48.0207 3.20945 47.9473 3.0508 47.8696 2.87704C47.8439 2.78643 47.7919 2.70329 47.753 2.61641C47.7488 2.60131 47.7402 2.57109 47.7359 2.55599C47.6236 2.31045 47.494 2.05353 47.3337 1.78897C45.8234 -0.931722 42.0725 2.41665 39.564 8.64324C39.3154 9.26855 39.0753 9.92407 38.8526 10.591C38.4115 11.9398 38.031 13.402 37.7419 14.9362C37.6061 15.709 37.4745 16.4969 37.3867 17.2887C37.3449 17.6921 37.3031 18.0956 37.2657 18.5141C37.1621 19.7509 37.1327 20.9993 37.1731 22.2932L37.1817 22.3234C37.2045 22.9043 37.2187 23.4551 37.2286 23.9907C37.2366 24.119 37.2314 24.251 37.2394 24.3793C37.2451 24.8998 37.2553 25.3864 37.2612 25.8579C37.2563 25.9408 37.2646 26.0201 37.2597 26.1031C37.2617 26.5104 37.2593 26.9027 37.2527 27.2799C37.2478 27.3628 37.2473 27.4609 37.2467 27.5589C37.2486 27.9663 37.2288 28.3472 37.2222 28.7243C37.2173 28.8073 37.2125 28.8903 37.2208 28.9695C37.2144 29.2977 37.2038 29.6107 37.1846 29.8935C37.1975 29.9388 37.1798 29.9765 37.1795 30.0255C37.1688 30.3385 37.1539 30.6364 37.1305 30.9042C37.1213 30.972 37.1253 31.0362 37.1162 31.104C37.0927 31.3717 37.0781 31.6207 37.0592 31.8544C37.0678 31.8847 37.0589 31.9035 37.0543 31.9374C37.0312 32.1561 37.0126 32.3409 36.994 32.5256C36.9937 32.5746 36.9802 32.6274 36.9799 32.6764C36.9613 32.8612 36.9253 33.0346 36.8982 33.1892C36.8936 33.2231 36.889 33.257 36.8844 33.291C36.8661 33.4267 36.8304 33.551 36.8078 33.6717C36.8121 33.6868 36.7944 33.7244 36.7986 33.7395C36.7629 33.8638 36.7403 33.9845 36.7092 34.0749C36.7134 34.09 36.6957 34.1277 36.6869 34.1465C36.6557 34.2369 36.6245 34.3273 36.5934 34.4178C36.5579 34.4931 36.5356 34.5647 36.4959 34.6249C36.4959 34.6249 36.4871 34.6437 36.4782 34.6626C36.4516 34.719 36.4208 34.7604 36.3899 34.8018C36.359 34.8432 36.337 34.8658 36.3019 34.8921C36.2799 34.9146 36.2447 34.9409 36.2184 34.9484C36.1307 34.9896 36.0696 34.9743 36.0521 34.9629C36.2231 34.1639 36.0972 33.2695 35.6119 32.5097C35.2045 31.8747 34.634 31.4655 34.0314 31.2938C34.5878 28.9496 35.2198 24.9195 34.1782 21.3479C34.1097 21.1063 33.8874 20.9736 33.6771 21.0332C33.4668 21.0929 33.3648 21.334 33.4333 21.5756C34.4409 24.9773 33.7609 28.9883 33.2228 31.1968C32.7896 31.2218 32.3776 31.3713 32.0172 31.653C31.5735 31.991 31.2731 32.4842 31.1167 33.0343C29.0969 32.873 25.2297 32.2568 22.5358 29.9698C22.353 29.8258 22.1167 29.8439 21.9886 30.0434C21.8737 30.2391 21.9072 30.5071 22.0943 30.6661C24.9404 33.0895 28.8774 33.7512 31.0152 33.9279C31.0291 34.5277 31.1873 35.1355 31.5384 35.6722C32.0237 36.432 32.7428 36.8643 33.4946 36.9611C33.5032 36.9913 33.516 37.0366 33.5114 37.0705C33.5114 37.0705 33.5114 37.0705 33.4983 37.0743C33.4588 37.0854 33.4237 37.1118 33.3754 37.1418C33.3623 37.1455 33.3491 37.1492 33.3228 37.1567C33.2834 37.1679 33.2308 37.1828 33.1651 37.2014C33.1388 37.2089 33.1125 37.2163 33.0731 37.2275C33.0205 37.2424 32.9462 37.2309 32.8631 37.2381C32.8237 37.2493 32.7931 37.2417 32.7494 37.2377C32.6488 37.2336 32.5482 37.2296 32.4302 37.2141C32.4039 37.2216 32.3733 37.2139 32.3428 37.2062C32.181 37.1868 32.0019 37.1561 31.8096 37.1291C31.7659 37.1252 31.7179 37.1061 31.6742 37.1022C31.5082 37.0677 31.3422 37.0332 31.1456 36.9911C31.0713 36.9795 30.9796 36.9566 30.901 36.9299C30.7176 36.8841 30.5167 36.8268 30.3027 36.7733C30.211 36.7504 30.1193 36.7274 30.0233 36.6894C29.7439 36.6055 29.447 36.5103 29.1196 36.4073C29.089 36.3997 29.0541 36.3769 29.0104 36.373C28.635 36.2511 28.2378 36.1027 27.8101 35.9466C27.701 35.9123 27.5744 35.8667 27.461 35.8173C27.1293 35.6992 26.7801 35.5698 26.4093 35.4139C26.2478 35.3455 26.0733 35.2808 25.9118 35.2124C25.5453 35.0716 25.157 34.9044 24.7556 34.7409C24.581 34.6762 24.4196 34.6078 24.2407 34.528C23.6473 34.2884 23.0321 34.0223 22.3647 33.7222C19.1059 32.297 15.7769 31.626 12.7465 31.5066C11.7407 31.4656 10.7653 31.4812 9.8332 31.5498C9.25116 31.6007 8.68655 31.663 8.13936 31.7366C7.81105 31.7808 7.50017 31.8363 7.18929 31.8919C2.52548 32.8233 -0.248125 35.1112 1.3008 37.2172C1.50478 37.4857 1.68703 37.7277 1.87387 37.9357C1.93901 38.0152 1.99557 38.0644 2.06071 38.1438C2.18241 38.2725 2.29097 38.4048 2.40839 38.5184C2.48667 38.5941 2.54752 38.6584 2.62152 38.719C2.71722 38.8061 2.81721 38.9082 2.90864 38.9802C2.98263 39.0408 3.05663 39.1014 3.13062 39.162C3.22205 39.2339 3.29604 39.2945 3.38318 39.3514C3.47032 39.4083 3.54431 39.4688 3.63145 39.5257C3.70117 39.5712 3.77088 39.6167 3.8363 39.6471C4.40714 40.0073 4.96972 40.2883 5.58398 40.7014C6.65136 41.4103 7.86527 42.4855 9.54729 45.0106C9.84639 45.4642 10.1281 45.9064 10.388 46.3222C13.6335 51.455 14.8466 54.1295 22.6658 50.704C22.6658 50.704 22.6743 50.7342 22.6609 50.787C22.6475 50.8397 22.6426 50.9227 22.642 51.0207C22.642 51.0207 22.642 51.0207 22.6463 51.0358C22.5704 52.02 22.4832 54.9165 23.8929 57.6331C25.0301 59.8396 27.1564 61.9287 31.0617 62.7789C31.3805 62.8516 31.7083 62.9055 32.0491 62.9556C32.39 63.0058 32.7266 63.0409 33.0415 63.0494C33.0415 63.0494 33.0415 63.0494 33.0546 63.0457C33.3695 63.0543 33.6626 63.0364 33.9384 63.0071C41.6726 62.0858 39.0238 46.3901 38.5279 43.7406L44.1653 51.8987C44.4341 52.2957 44.919 52.4029 45.2531 52.1287C45.5914 51.8695 45.6646 51.3266 45.4221 50.9222L40.0994 42.0711C40.0994 42.0711 55.7269 53.1551 58.8305 43.219C58.8305 43.219 58.8394 43.2002 58.8482 43.1813C58.9551 42.8573 59.0403 42.5068 59.1038 42.1298L59.0378 42.1975Z" fill="white"/>
</svg>
