<svg width="72" height="70" viewBox="0 0 72 70" fill="none" xmlns="http://www.w3.org/2000/svg">
<g clip-path="url(#clip0_4_68)">
<path d="M0 34.597C0.198439 33.4872 0.284184 32.3406 0.617366 31.2725C1.32293 29.0039 2.13138 26.7647 2.94964 24.5329C3.78259 22.2545 4.67679 20.0007 5.54649 17.7345C5.62734 17.5239 5.71799 17.3181 5.82333 17.0657C6.59259 17.3597 7.3202 17.6366 8.10905 17.9379C8.01841 18.2074 7.94981 18.4426 7.86407 18.6704C6.4358 22.453 4.95363 26.2135 3.5915 30.0182C1.95499 34.5896 2.19753 39.1464 3.98838 43.637C4.09862 43.9138 4.20642 44.1931 4.33871 44.5336C3.5817 44.8497 2.84674 45.1583 2.05789 45.4891C1.22003 43.5439 0.578168 41.606 0.281734 39.5628C0.18864 38.9283 0.0930949 38.2914 0 37.6544C0 36.6353 0 35.6161 0 34.597Z" fill="black"/>
<path d="M71.1514 63.7847H68.6942V52.5276H71.1514V63.7847Z" fill="black"/>
<path d="M71.1515 68.7873H68.6501C68.6501 68.3439 68.6501 67.9397 68.6501 67.533C68.6501 67.1263 68.6501 66.7588 68.6501 66.2836H71.1515V68.7849V68.7873Z" fill="black"/>
<path d="M27.3969 50.5407V53.7059C28.4724 54.1445 28.6292 54.3772 28.6292 55.5286C28.6292 58.5395 28.6292 61.5504 28.6292 64.5613C28.6292 65.6833 28.4553 65.9357 27.3749 66.3472V70.0024H24.8981V66.3252H12.4038V69.9902H9.89265V66.3276C8.75592 66.1243 8.59423 65.3354 8.60402 64.3628C8.63587 61.4696 8.61627 58.5738 8.61627 55.6781C8.61627 54.2253 8.84901 53.946 10.3116 53.7084C9.94655 52.824 9.58397 51.9543 9.22629 51.0797C8.2341 48.6641 7.188 46.2681 6.2644 43.8256C4.28981 38.5952 4.44415 33.3623 6.42119 28.1612C8.77062 21.9826 11.1298 15.8065 13.4891 9.63041C14.5449 6.86206 16.7253 5.76697 19.5745 6.51908C19.8146 6.58278 20.187 6.44314 20.3928 6.27165C22.3772 4.61309 24.5281 3.23626 26.9045 2.20977C32.2697 -0.112703 37.7966 -0.602676 43.4754 0.732501C47.4834 1.6757 51.0675 3.49105 54.2009 6.1663C54.6296 6.53133 54.9824 6.62443 55.5459 6.45294C57.6773 5.79882 60.0145 6.77877 60.889 8.82685C62.0601 11.5658 63.0768 14.3733 64.1376 17.1588C65.6687 21.1766 67.244 25.1797 68.6821 29.2293C70.544 34.4745 70.2377 39.6878 68.1333 44.8129C66.9231 47.7626 65.6932 50.7024 64.4438 53.7157C64.6373 53.7427 64.7819 53.7623 64.9264 53.7819C65.7079 53.897 66.1342 54.3282 66.1367 55.1342C66.1514 58.3999 66.1465 61.6655 66.1391 64.9312C66.1391 65.7274 65.6614 66.1463 64.897 66.3203V69.9853H62.4251V66.3423H49.9088V69.9975H47.4295V66.3276C46.305 66.1243 46.1164 65.3722 46.1262 64.4143C46.1556 61.4745 46.1556 58.5322 46.1262 55.5899C46.1164 54.6491 46.3418 53.9411 47.3707 53.7427V50.5481C40.7193 53.1474 34.0851 53.1645 27.3945 50.5407H27.3969ZM18.8322 20.5887C22.3184 20.988 23.6266 22.4628 23.6266 25.8804C23.6266 28.5899 23.6486 31.2995 23.6168 34.009C23.6021 35.3564 23.8422 36.6206 24.4253 37.8382C25.8339 40.7804 26.7673 43.8673 27.1226 47.1182C27.1691 47.5372 27.3259 47.7993 27.762 47.983C34.1929 50.7146 40.6115 50.7122 47.0351 47.9659C47.4295 47.7969 47.5985 47.5641 47.6426 47.155C47.9979 43.8575 48.9558 40.7314 50.384 37.7451C50.9352 36.5936 51.1606 35.3932 51.1484 34.1168C51.1214 31.1525 51.1337 28.1881 51.1435 25.2238C51.1484 23.3129 51.9666 21.8577 53.7183 21.0541C54.3675 20.7577 55.1221 20.6965 55.8815 20.5152C55.8154 20.3388 55.7443 20.1256 55.6586 19.9198C54.6835 17.6194 53.6962 15.3263 52.7408 13.021C52.513 12.4723 52.2508 11.872 52.268 11.3037C52.2949 10.2943 52.5252 9.28988 52.6869 8.17274C43.054 -0.291542 29.0947 1.49441 21.8945 8.41773C22.6197 9.66471 22.7887 10.9803 22.2963 12.3473C22.0464 13.0431 21.7402 13.7192 21.4536 14.4003C20.5912 16.441 19.7264 18.4793 18.8322 20.5911V20.5887ZM49.9455 53.7378C50.0459 53.75 50.1341 53.7721 50.2199 53.7721C53.902 53.7721 57.5842 53.7647 61.2663 53.7868C61.6975 53.7868 61.8127 53.5614 61.94 53.2478C63.2654 50.0434 64.6153 46.8488 65.9162 43.6345C67.6825 39.2689 68.0157 34.7881 66.411 30.3416C63.9857 23.624 61.3815 16.9702 58.8434 10.2943C58.3436 8.9763 57.1383 8.42753 55.9575 8.9273C54.806 9.41237 54.419 10.5736 54.98 11.9039C56.3568 15.1622 57.7287 18.423 59.1227 21.6739C59.6519 22.9062 59.9042 24.1777 59.8993 25.5178C59.8871 30.0794 59.8944 34.6435 59.8944 39.2052V39.9769H57.3931C57.3931 39.6854 57.3931 39.4355 57.3931 39.1831C57.3931 34.5749 57.3882 29.9643 57.398 25.3561C57.398 24.6187 57.2314 23.967 56.614 23.5236C56.0285 23.1022 55.3671 23.0263 54.708 23.3448C53.9657 23.7049 53.6424 24.337 53.6424 25.1479C53.6424 28.1808 53.6277 31.2162 53.6473 34.2491C53.657 35.8048 53.3876 37.2869 52.6918 38.6834C50.3424 43.4116 49.6148 48.4412 49.9431 53.7378H49.9455ZM24.8785 53.7745C24.8785 52.8534 24.8687 52.0425 24.8785 51.2316C24.9348 46.9492 24.0823 42.8604 22.213 39.0018C21.4389 37.4045 21.091 35.7435 21.113 33.9698C21.1522 31.0741 21.1302 28.1783 21.1204 25.2826C21.1155 23.9303 20.2213 23.0606 19.0062 23.1953C17.9993 23.3056 17.377 24.1091 17.3745 25.3365C17.3696 29.9692 17.3745 34.6019 17.3745 39.2346C17.3745 39.4796 17.3745 39.7246 17.3745 39.9597H14.8732C14.8732 39.6511 14.8732 39.3963 14.8732 39.1439C14.8732 34.7195 14.8904 30.295 14.8634 25.8706C14.8536 24.2904 15.1476 22.8082 15.7797 21.3555C17.1688 18.178 18.4966 14.9736 19.8538 11.7814C20.187 10.9974 20.187 10.2429 19.6407 9.55691C19.1409 8.9273 18.4623 8.65781 17.671 8.77296C16.7253 8.9126 16.1937 9.53732 15.8654 10.4021C13.4866 16.6713 11.0931 22.9332 8.71182 29.2024C6.97486 33.7787 6.85482 38.3894 8.61872 42.9682C9.96615 46.4617 11.4679 49.8964 12.8741 53.3679C13.0407 53.7745 13.2955 53.777 13.6311 53.7745C17.1737 53.7696 20.7186 53.7721 24.2611 53.7721C24.44 53.7721 24.6188 53.7721 24.8736 53.7721L24.8785 53.7745ZM26.0789 63.7504V56.3322H11.1568V63.7504H26.0789ZM63.6158 56.3273H48.6961V63.743H63.6158V56.3273Z" fill="black"/>
<path d="M7.22471 13.3101C8.00621 13.6066 8.73137 13.8834 9.54718 14.1921C9.30709 14.8339 9.07925 15.444 8.82447 16.1226C8.04296 15.8261 7.30065 15.5419 6.48975 15.2357C6.73963 14.5816 6.97237 13.9691 7.22471 13.3101Z" fill="black"/>
<path d="M26.0789 63.7504H11.1567V56.3322H26.0789V63.7504Z" fill="#22B573"/>
<path d="M63.6157 56.3273V63.743H48.696V56.3273H63.6157Z" fill="#22B573"/>
<path d="M37.113 36.4295V39.901C36.329 39.9696 35.5598 40.0357 34.6607 40.1141C34.6313 39.2787 34.5161 38.4751 34.597 37.6936C34.7195 36.5153 34.4353 35.8587 33.2079 35.3393C30.6674 34.2614 29.5307 31.9904 29.0603 29.3959C28.0559 23.8495 30.7825 19.3662 35.2266 16.8257C39.1586 14.5792 43.3504 14.611 47.596 15.8286C48.5735 16.1079 48.9214 16.9261 48.3799 17.7713C47.2579 19.523 47.0252 21.4633 46.9296 23.4722C46.8341 25.4786 46.8169 27.5169 46.4225 29.4719C45.5185 33.9674 42.2553 36.6549 37.5417 36.4271C37.429 36.4222 37.3139 36.4271 37.113 36.4271V36.4295ZM45.516 17.8179C44.8227 17.7223 44.2323 17.6096 43.637 17.5606C40.3762 17.2887 37.3825 17.9526 34.8273 20.1183C31.7037 22.7666 30.5964 26.4365 31.8507 30.1554C32.3358 31.5959 33.1663 32.7694 34.7611 33.3231C35.1997 29.3861 36.138 25.6428 37.75 22.0194C38.5192 22.3599 39.2468 22.6809 40.0136 23.0214C38.5217 26.5345 37.5638 30.104 37.2404 33.8743C38.6711 34.0041 39.9965 33.867 41.219 33.1344C43.1397 31.9855 43.9285 30.1432 44.1711 28.0534C44.3499 26.5198 44.3573 24.9617 44.394 23.4134C44.4406 21.5245 44.8007 19.7018 45.5111 17.8179H45.516Z" fill="#22B573"/>
<path d="M46.6798 7.13403C46.3173 7.87879 45.9767 8.5819 45.5897 9.37566C41.0329 7.27122 36.3512 6.93069 31.5274 8.41286C31.3069 7.74894 31.1085 7.16343 30.9174 6.57546C30.8684 6.42602 30.8439 6.26923 30.7949 6.04629C36.2459 4.35098 41.5057 4.73071 46.6823 7.13158L46.6798 7.13403Z" fill="black"/>
<path d="M26.821 10.7231C26.3433 10.0224 25.9023 9.37564 25.4124 8.65538C26.2943 8.14091 27.1395 7.64603 28.0656 7.10461C28.4502 7.89347 28.8005 8.60883 29.1631 9.35114C28.3816 9.80926 27.6319 10.2478 26.821 10.7231Z" fill="black"/>
</g>
<defs>
<clipPath id="clip0_4_68">
<rect width="71.1514" height="70" fill="white"/>
</clipPath>
</defs>
</svg>
