<svg width="60" height="70" viewBox="0 0 60 70" fill="none" xmlns="http://www.w3.org/2000/svg">
<g clip-path="url(#clip0_4_79)">
<path d="M31.0453 0C31.7198 0.0847823 32.3962 0.160144 33.0669 0.258115C41.5244 1.50159 47.8285 5.92722 52.06 13.2901C53.9554 16.5891 54.9276 20.2027 55.1386 24.0216C55.4777 30.1994 53.8028 35.7649 50.1647 40.7501C49.7766 41.2833 49.3583 41.8014 48.9061 42.28C48.567 42.6398 48.5727 42.9149 48.8176 43.3369C52.2258 49.2039 55.6134 55.0821 59.0084 60.9566C59.2778 61.4219 59.5171 61.8515 59.1667 62.4073C58.6391 63.2494 58.1662 63.4567 57.2299 63.0893C55.0689 62.2415 52.9173 61.3767 50.76 60.5195C50.1911 60.2934 49.6202 60.0692 48.9457 59.8035C48.8176 60.625 48.6857 61.3974 48.5764 62.1718C48.2825 64.2235 47.998 66.2752 47.7079 68.327C47.6721 68.5757 47.6382 68.8262 47.5685 69.0655C47.2934 70.0207 46.1573 70.2996 45.4659 69.5723C45.2661 69.3613 45.1192 69.0957 44.9704 68.8413C41.5696 62.9706 38.1689 57.0999 34.7852 51.2179C34.5384 50.7883 34.3236 50.6112 33.7885 50.7092C30.9606 51.2179 28.1232 51.1972 25.2952 50.6998C24.8072 50.6131 24.6188 50.7865 24.4003 51.1651C21.0147 57.0453 17.6139 62.916 14.2189 68.7904C13.8458 69.4348 13.4822 70.1225 12.5854 69.9849C11.6245 69.838 11.5586 69.0429 11.4512 68.2761C11.0574 65.482 10.643 62.6918 10.2266 59.8186C9.94021 59.9222 9.69151 60.0051 9.44847 60.1012C7.01805 61.0696 4.5895 62.0418 2.1572 63.0083C1.94618 63.0912 1.72952 63.1684 1.50908 63.2155C0.529376 63.4265 -0.220476 62.6447 0.0583634 61.6857C0.14503 61.3842 0.307058 61.0997 0.465318 60.8266C3.7982 55.0482 7.12544 49.266 10.4885 43.5046C10.8276 42.9224 10.7503 42.589 10.3396 42.1029C5.51646 36.4093 3.444 29.8038 4.41994 22.4334C5.68791 12.8398 10.9727 6.08171 19.7278 2.0555C22.2638 0.889272 24.9806 0.273187 27.7822 0.105507C27.9593 0.0942025 28.1345 0.035797 28.3097 0C29.2216 0 30.1335 0 31.0453 0ZM52.6422 25.4271C52.5951 12.7644 42.4193 2.55289 29.7171 2.5284C17.028 2.5039 6.75239 12.8963 6.77312 25.5779C6.79384 38.3932 16.9451 48.4728 29.7114 48.5124C42.3082 48.552 52.6912 38.0371 52.6441 25.4271H52.6422ZM55.0519 59.3871C55.0839 59.3476 55.1179 59.308 55.1499 59.2684C52.3257 54.385 49.5015 49.5015 46.7244 44.6972C45.1606 45.7466 43.7269 46.845 42.1669 47.7192C40.5918 48.601 38.8924 49.2585 37.2005 50.0366C39.9965 54.9106 42.8244 59.8355 45.6505 64.7605C46.1177 62.5109 46.4493 60.3292 46.7753 58.1474C46.9618 56.9002 47.6777 56.4801 48.859 56.9454C50.5528 57.6105 52.2428 58.2831 53.9347 58.9519C54.3058 59.0989 54.6789 59.2421 55.05 59.3871H55.0519ZM12.6702 44.701C9.88934 49.511 7.06326 54.3963 4.14864 59.4324C4.53675 59.2986 4.74965 59.2364 4.95501 59.1554C6.83718 58.4112 8.71369 57.6576 10.5977 56.919C11.6566 56.5045 12.4102 56.9228 12.5892 58.0306C12.8285 59.5134 13.0432 60.9999 13.2712 62.4826C13.3861 63.2268 13.5067 63.9692 13.6235 64.7134C13.6725 64.7152 13.7215 64.7171 13.7705 64.719C16.5909 59.8016 19.4094 54.8843 22.1903 50.0347C20.4758 49.2472 18.7952 48.5972 17.239 47.7249C15.679 46.8507 14.2434 45.7542 12.6702 44.701Z" fill="black"/>
<path d="M52.6422 25.4272C52.6893 38.0371 42.3063 48.552 29.7096 48.5124C16.9433 48.4729 6.792 38.3932 6.77127 25.5779C6.75055 12.8964 17.0262 2.50393 29.7152 2.52842C42.4175 2.55292 52.5933 12.7645 52.6404 25.4272H52.6422ZM29.7171 45.4019C40.7124 45.3793 49.5298 36.56 49.5825 25.5346C49.6334 14.5845 40.6484 5.59566 29.6794 5.62769C18.6822 5.65972 9.84416 14.5072 9.8272 25.5044C9.80836 36.511 18.7199 45.4245 29.719 45.4019H29.7171Z" fill="#22B573"/>
<path d="M29.7171 45.4018C18.7181 45.4244 9.80651 36.5091 9.82535 25.5044C9.84419 14.5072 18.6804 5.65968 29.6776 5.62765C40.6446 5.59562 49.6316 14.5844 49.5807 25.5345C49.5298 36.56 40.7106 45.3811 29.7153 45.4018H29.7171ZM12.3198 25.5364C12.3349 35.0716 20.1349 42.8697 29.6908 42.8998C39.3183 42.93 47.0711 35.1394 47.0579 25.4422C47.0466 15.8863 39.2523 8.09199 29.7002 8.08257C20.2083 8.07503 12.3048 16.0106 12.3179 25.5364H12.3198Z" fill="black"/>
<path d="M29.8754 33.0161C28.4812 34.0278 27.1134 35.0452 25.7211 36.0287C24.2082 37.097 22.4296 36.6994 21.5102 35.1112C21.1259 34.4461 21.0637 33.7358 21.2992 33.0048C21.7683 31.556 22.2243 30.1015 22.7292 28.664C22.8931 28.2005 22.846 27.9443 22.4183 27.6541C21.156 26.7987 19.9106 25.9151 18.6954 24.9938C17.7383 24.2685 17.3823 23.2548 17.6422 22.0849C17.8796 21.0204 18.5711 20.3327 19.6299 20.0501C19.888 19.9804 20.1688 19.9672 20.4382 19.9653C21.919 19.9559 23.3999 19.9389 24.8808 19.9709C25.3499 19.9804 25.5609 19.8428 25.6947 19.3907C26.1355 17.9079 26.5877 16.4289 27.0983 14.9707C27.6541 13.3824 29.2329 12.6816 30.808 13.2769C31.7349 13.6274 32.2342 14.3753 32.5262 15.2759C32.969 16.6381 33.4061 18.004 33.8112 19.3756C33.9412 19.8127 34.1296 19.986 34.6157 19.9747C36.1417 19.9389 37.6678 19.954 39.1939 19.9709C40.5071 19.986 41.5037 20.7604 41.9201 22.0547C42.3403 23.3585 42.0369 24.2892 40.8745 25.1408C39.68 26.015 38.4798 26.8816 37.2609 27.7182C36.9123 27.9574 36.852 28.1703 36.9877 28.5603C37.4738 29.9564 37.9127 31.3676 38.3875 32.7674C38.8077 34.0071 38.478 35.2186 37.4813 36.0193C36.5299 36.7823 35.2657 36.8539 34.1748 36.1173C32.9502 35.2883 31.7726 34.3896 30.5725 33.521C30.3521 33.3609 30.1316 33.2045 29.8735 33.0218L29.8754 33.0161ZM23.4225 22.4146C22.5332 22.4146 21.6459 22.3938 20.7585 22.4278C20.4966 22.4372 20.2422 22.5954 19.9822 22.6859C20.133 22.8931 20.2441 23.1493 20.4382 23.3001C21.7646 24.3401 23.106 25.3574 24.4437 26.3843C25.3405 27.0719 25.414 27.3018 25.0729 28.3587C24.5435 30.0035 23.999 31.6445 23.4866 33.2931C23.415 33.5229 23.4866 33.7961 23.4922 34.0486C23.7372 33.9789 24.0216 33.9676 24.2176 33.8281C25.6457 32.8108 27.0531 31.7651 28.4699 30.7326C29.3592 30.0864 29.8 30.0864 30.6836 30.7308C32.027 31.7086 33.359 32.7034 34.7155 33.6642C34.9887 33.8583 35.3429 33.9355 35.6594 34.0674C35.6425 33.7339 35.6933 33.3797 35.5972 33.0708C35.1149 31.507 34.5931 29.9545 34.0862 28.3983C33.7528 27.3677 33.8677 27.0135 34.7588 26.3616C36.1926 25.3122 37.632 24.2741 39.0601 23.2172C39.2448 23.0796 39.3691 22.8592 39.5198 22.6783C39.2843 22.5898 39.0488 22.4278 38.8133 22.4259C37.1045 22.4033 35.3957 22.4146 33.6887 22.4146C32.4754 22.4146 32.1231 22.1602 31.7519 21.0147C31.247 19.4566 30.7552 17.8966 30.2334 16.3442C30.1392 16.0653 29.93 15.826 29.7718 15.5679C29.6022 15.8336 29.3723 16.0785 29.2744 16.3686C28.7431 17.9418 28.2476 19.5263 27.7351 21.1033C27.3922 22.1564 27.0437 22.4108 25.9509 22.4127C25.1087 22.4146 24.2647 22.4127 23.4225 22.4127V22.4146Z" fill="black"/>
<path d="M23.4206 22.4145C24.2628 22.4145 25.1068 22.4164 25.949 22.4145C27.0418 22.4107 27.3903 22.1583 27.7332 21.1051C28.2457 19.5263 28.7412 17.9418 29.2725 16.3705C29.3705 16.0803 29.6003 15.8354 29.7699 15.5698C29.9262 15.8279 30.1373 16.0672 30.2315 16.346C30.7533 17.8984 31.2451 19.4584 31.75 21.0166C32.1212 22.1621 32.4716 22.4164 33.6868 22.4164C35.3956 22.4164 37.1045 22.407 38.8114 22.4277C39.0488 22.4315 39.2824 22.5916 39.5179 22.6802C39.3653 22.861 39.2429 23.0815 39.0582 23.219C37.6301 24.276 36.1907 25.3141 34.757 26.3635C33.8658 27.0154 33.7509 27.3696 34.0843 28.4001C34.5893 29.9564 35.1112 31.5088 35.5954 33.0726C35.6914 33.3816 35.6406 33.7358 35.6575 34.0693C35.341 33.9374 34.9868 33.8601 34.7136 33.6661C33.3571 32.7052 32.0251 31.7104 30.6818 30.7326C29.7981 30.0883 29.3573 30.0883 28.468 30.7345C27.0493 31.7651 25.6419 32.8107 24.2157 33.83C24.0216 33.9694 23.7353 33.9788 23.4903 34.0504C23.4847 33.7979 23.4131 33.5248 23.4847 33.2949C23.9971 31.6445 24.5416 30.0054 25.0711 28.3606C25.4121 27.3036 25.3367 27.0757 24.4418 26.3861C23.106 25.3593 21.7627 24.3419 20.4363 23.3019C20.2422 23.1493 20.1311 22.8949 19.9803 22.6877C20.2385 22.5973 20.4947 22.439 20.7566 22.4296C21.644 22.3976 22.5332 22.4164 23.4206 22.4164V22.4145Z" fill="#22B573"/>
</g>
<defs>
<clipPath id="clip0_4_79">
<rect width="59.34" height="70" fill="white"/>
</clipPath>
</defs>
</svg>
