<svg width="52" height="47" viewBox="0 0 52 47" fill="none" xmlns="http://www.w3.org/2000/svg">
<path fill-rule="evenodd" clip-rule="evenodd" d="M36.8889 40.0512L36.8829 42.0619C36.8144 42.0401 32.3168 38.389 32.1707 38.1915C32.2847 37.9671 34.1363 36.5105 34.476 36.2352C34.856 35.9273 36.6212 34.3945 36.8838 34.3031L36.8815 36.3019C37.2282 36.3768 40.4136 36.3224 41.0393 36.3215C42.2322 36.3199 44.0426 36.4272 45.1074 36.2008C47.2519 35.7449 48.8887 34.1822 49.523 32.2137C50.3631 29.6066 49.2621 27.3407 47.9194 26.0619C47.42 25.5862 46.7073 25.1355 46.0053 24.8632C45.5515 24.6872 45.6072 24.7178 45.2142 24.9019C44.2518 25.3527 43.1832 25.7438 42.0519 25.9751C38.9483 26.6099 37.642 25.8473 35.0256 25.0803C34.0544 24.7956 32.6382 24.2052 31.5487 24.5745C30.6462 24.8804 29.834 26.1415 30.3308 27.3679C30.9056 28.787 32.1553 28.6733 33.2184 28.6733H41.6285C42.9857 28.6733 44.4464 28.4211 45.1567 29.3603C45.9528 30.4127 45.4411 31.6643 44.4498 32.0657C43.842 32.3119 41.2453 32.2011 40.3965 32.2011C39.5711 32.2011 32.6067 32.1545 31.9952 32.2075C30.7934 32.3117 30.0986 33.2009 30.101 34.4953C30.1033 35.6863 29.9925 42.1785 30.2111 42.8026C30.7147 44.2404 31.9973 44.1903 33.0577 44.1903H45.5925C47.0082 44.1903 48.3791 44.413 49.1545 43.5214C50.2962 42.2088 49.6226 40.0488 47.4675 40.0497L36.8889 40.0512V40.0512Z" fill="#55B76B"/>
<path fill-rule="evenodd" clip-rule="evenodd" d="M14.9714 36.4326L14.9759 34.312C15.4171 34.5641 19.6346 38.1239 19.6768 38.1916C19.5649 38.3657 15.024 42.0562 14.9885 42.0671L14.9725 39.9334C11.962 39.9446 10.031 40.1376 8.16736 38.4412C4.62628 35.2177 6.52693 29.2624 11.4239 28.7658C12.7888 28.6273 17.8486 28.7794 19.773 28.7396C20.9046 28.7161 21.7628 27.7936 21.8389 26.7159C21.9198 25.5716 20.9613 24.5803 19.9323 24.4858C17.2102 24.2359 14.4634 27.127 9.53043 25.885C7.73923 25.4341 8.21467 25.0724 6.6136 26.1559C0.882325 30.0345 0.914468 38.6595 6.62112 42.5056C8.64097 43.8668 10.2962 44.1903 13.2377 44.1903C14.6305 44.1903 16.0232 44.1903 17.416 44.1903C18.7899 44.1903 20.1747 44.4081 21.0796 43.6751C22.0015 42.9283 21.803 41.7203 21.803 40.2806C21.803 38.8878 21.803 37.4951 21.803 36.1024C21.803 34.5358 22.0274 33.5735 21.0636 32.7228C20.2406 31.9963 18.7094 32.2011 17.416 32.2011C16.0411 32.2011 14.6662 32.2011 13.2913 32.2011C11.7386 32.2011 10.833 32.2019 10.2222 33.2998C9.55165 34.5051 10.2013 35.6938 11.0304 36.1677C11.8079 36.6122 13.904 36.4394 14.9715 36.4325L14.9714 36.4326Z" fill="#55B76B"/>
<path fill-rule="evenodd" clip-rule="evenodd" d="M24.8143 21.5353C24.8132 21.2556 24.7223 20.8827 24.6961 20.5696C24.543 18.7438 25.4371 15.7094 26.0521 14.0932C26.4833 14.776 27.2592 18.1708 27.4136 19.3542C27.5264 20.2192 27.3465 20.7438 27.309 21.5095L28.3821 20.4453C28.7555 20.111 29.0846 19.7506 29.4401 19.4142C31.7985 17.1826 33.1883 13.8271 32.5234 10.2819C31.8148 6.50378 29.481 3.74804 27.0991 1.08254C26.8895 0.848122 26.2215 0.110092 26.0321 0C25.4801 0.657436 24.7499 1.30417 24.0461 2.181C22.0623 4.65236 20.2596 6.72692 19.591 10.3102C18.8795 14.1241 20.3409 16.9152 22.6867 19.4211C22.8653 19.6119 23.0089 19.7575 23.2005 19.9262L24.293 20.9754C24.4609 21.153 24.6034 21.3935 24.8143 21.5352L24.8143 21.5353Z" fill="#55B76B"/>
<path fill-rule="evenodd" clip-rule="evenodd" d="M29.7756 21.0687C30.017 20.9741 30.2832 20.7935 30.5306 20.6619C32.0715 19.8419 33.6398 19.7387 35.3465 19.9918C35.8689 20.0694 36.8708 20.1423 37.33 20.2818C35.4704 20.6243 33.4041 20.2038 31.5556 21.9057C31.2099 22.224 30.6483 22.746 30.4203 23.2462C30.5513 23.3305 33.0308 23.9048 33.42 24.0075C37.1544 24.9927 38.8666 26.2876 42.6888 25.219C45.3954 24.4624 48.4536 22.5811 50.4923 20.7532C50.5869 20.6684 50.6519 20.6243 50.7578 20.5367L51.5107 19.8429C51.701 19.664 51.894 19.5837 51.9999 19.3033C51.6346 19.1299 51.1646 18.8011 50.7638 18.5543C49.6216 17.8511 48.0193 17.0717 46.7554 16.5679C42.4908 14.8677 37.8625 14.6816 33.9264 17.1524C32.398 18.1119 31.0842 19.3302 30.0044 20.7283C29.8819 20.8868 29.853 20.8988 29.7757 21.0687L29.7756 21.0687Z" fill="#55B76B"/>
<path fill-rule="evenodd" clip-rule="evenodd" d="M3.14819e-05 19.3357C0.262401 19.9035 3.42161 22.2924 4.13965 22.7538C6.47148 24.252 9.46858 25.7981 12.5435 25.6045C13.804 25.5252 14.5362 25.2353 15.6283 24.8848C16.6128 24.5689 17.5715 24.2769 18.555 24.0101C18.9504 23.9028 21.4638 23.3323 21.5805 23.2395C19.3695 19.9371 16.9119 20.7336 14.6508 20.279C15.1948 20.1357 16.0598 20.0795 16.6277 19.9929C18.1507 19.7607 19.2174 19.8046 20.6702 20.3151C21.294 20.5343 21.7328 20.8293 22.242 21.1003C21.9916 20.619 20.7854 19.3006 20.3747 18.9483C19.5256 18.2202 19.1647 17.8306 18.1167 17.1879C14.0952 14.7218 9.62719 14.8154 5.25955 16.5551C4.09863 17.0176 0.943606 18.5373 0 19.3357H3.14819e-05Z" fill="#55B76B"/>
<path fill-rule="evenodd" clip-rule="evenodd" d="M33.7964 46.0261C32.9869 45.9556 32.6437 45.9946 31.9072 45.7157C30.3667 45.1325 29.1804 43.7988 28.8947 41.9777C28.7877 41.2956 28.8545 29.8681 28.8545 28.6029C28.8545 27.1522 28.7328 25.6699 29.1784 24.4033C29.9542 22.1983 31.6199 20.8693 33.7907 20.3858C33.8116 20.3812 33.9046 20.3576 33.9205 20.3523C34.0297 20.3159 33.9857 20.3317 34.0437 20.2999C33.8858 20.214 33.6269 20.2415 33.4328 20.2417C30.8353 20.2454 28.541 21.6369 27.2743 23.8903C26.477 25.3086 26.4169 26.371 26.4169 28.2279L26.4107 38.6736C26.4107 40.3952 26.2289 42.0243 26.8816 43.4567C27.4043 44.604 28.3356 45.5116 29.4959 46.0403C30.7283 46.6018 32.5868 46.6994 33.7965 46.0261H33.7964Z" fill="#55B76B"/>
<path fill-rule="evenodd" clip-rule="evenodd" d="M17.9239 20.3325C20.2492 20.793 22.0373 22.1436 22.8076 24.3949C23.2481 25.6821 23.1354 27.0386 23.1354 28.4958C23.1354 29.7691 23.1921 41.1824 23.1028 41.8883C22.9262 43.2842 22.259 44.1468 21.5368 44.8303C20.7077 45.615 19.6725 45.9851 18.2124 46.0182C18.6962 46.4361 20.2745 46.5644 21.0753 46.45C22.8052 46.203 24.2612 45.1222 25.0293 43.6088C25.6489 42.3879 25.571 41.4467 25.572 40.0664L25.5652 27.7994C25.572 25.5063 25.0785 23.853 23.4845 22.2661C22.0643 20.8523 20.3668 20.2696 18.3793 20.2391C18.3563 20.2388 18.1738 20.238 18.1635 20.2395C18.0429 20.2565 18.1832 20.2228 18.0619 20.2609C17.9248 20.3039 18.0163 20.2561 17.9238 20.3325H17.9239Z" fill="#55B76B"/>
<path fill-rule="evenodd" clip-rule="evenodd" d="M26.0484 24.681C26.5485 24.0698 27.1465 21.4229 27.0957 20.3014C27.0584 19.4794 26.3629 16.3842 26.0523 15.8604C25.6474 17.1012 25.1331 18.85 25.0287 20.254C24.9266 21.6261 25.5472 23.653 26.0484 24.681H26.0484Z" fill="#55B76B"/>
</svg>
