<svg width="68" height="70" viewBox="0 0 68 70" fill="none" xmlns="http://www.w3.org/2000/svg">
<path d="M24.7402 70C23.5698 69.8633 22.3977 69.7466 21.231 69.5862C17.0456 69.0102 13.0662 67.8472 9.51517 65.4537C6.38704 63.3446 4.15397 60.4935 2.65371 57.0628C0.571939 52.3013 -0.10254 47.2737 0.0123037 42.1222C0.050585 40.4177 0.194595 38.7133 0.327668 37.0107C0.42246 35.7875 0.674022 35.4922 1.88626 35.3555C8.53808 34.6081 15.0878 34.867 21.4006 37.4099C27.1081 39.7105 30.8615 43.8539 32.9269 49.6034C33.2021 50.3672 33.4355 51.1456 33.7527 52.1136C33.8803 51.7034 33.9568 51.4628 34.0297 51.2203C35.3441 46.8453 37.4969 43.0099 41.1865 40.1899C44.1889 37.8966 47.6305 36.5878 51.2928 35.8149C55.5784 34.9107 59.9042 34.8086 64.2519 35.2006C64.7951 35.2498 65.3347 35.3373 65.8761 35.3865C66.629 35.4539 67.0282 35.875 67.1102 36.6042C67.225 37.6214 67.3691 38.6404 67.4201 39.6612C67.6425 44.0472 67.4657 48.4058 66.3446 52.6805C65.0594 57.5805 62.8154 61.8935 58.6391 64.9761C55.83 67.0505 52.6763 68.3594 49.2693 69.0193C47.3115 69.3985 45.3191 69.5953 43.343 69.8761C43.1425 69.9052 42.9474 69.9563 42.7487 69.9964H37.836C37.1433 69.918 36.4415 69.887 35.7597 69.7539C33.6998 69.3547 31.68 69.7886 29.6493 69.9964H24.7365L24.7402 70ZM25.4857 58.9076C25.5404 58.7545 25.5787 58.6961 25.5787 58.6396C25.5823 53.4224 25.586 48.2052 25.5787 42.9899C25.5787 42.8276 25.5222 42.6052 25.4092 42.5104C24.0803 41.3966 22.6256 40.4925 20.9321 39.787V40.5891C20.9321 44.4391 21.0123 48.2909 20.8938 52.1373C20.8446 53.725 21.2183 54.8953 22.4597 55.9107C23.5389 56.793 24.454 57.874 25.4857 58.9094V58.9076ZM41.9066 58.8037C41.9631 58.8183 42.0178 58.8328 42.0743 58.8456C43.4214 57.4912 44.7612 56.1276 46.1248 54.7878C46.442 54.4761 46.5732 54.1644 46.5714 53.7177C46.5568 49.299 46.5623 44.8784 46.5623 40.4597V39.787C45.0274 40.425 43.7076 41.2417 42.4534 42.186C42.0469 42.4922 41.8956 42.8076 41.8974 43.3198C41.9175 48.2636 41.9102 53.2073 41.9102 58.1511V58.8037H41.9066ZM23.9107 60.6685C23.661 60.3951 23.5206 60.2292 23.3693 60.0761C22.1662 58.8675 20.9467 57.6735 19.7618 56.4466C19.43 56.1039 19.0909 55.9854 18.6261 55.9873C14.2639 56.0019 9.8998 55.9964 5.53756 55.9964H4.77376C5.41907 57.544 6.23574 58.8657 7.18183 60.118C7.48261 60.5172 7.7998 60.6849 8.31569 60.6831C13.2467 60.6612 18.1777 60.6703 23.1087 60.6703H23.9126L23.9107 60.6685ZM62.6987 56.0565C62.5292 56.0274 62.4417 56 62.3524 56C57.7623 55.9964 53.1722 55.9909 48.5821 56.011C48.3287 56.011 48.0243 56.186 47.8329 56.3719C46.7391 57.4328 45.6764 58.5266 44.5935 59.5966C44.28 59.9065 43.9282 60.1763 43.4834 60.5573C43.7969 60.6357 43.8571 60.663 43.9191 60.663C49.0998 60.6649 54.2805 60.6685 59.4612 60.6558C59.6599 60.6558 59.9224 60.5573 60.0446 60.4115C61.1292 59.119 62.0042 57.6917 62.7006 56.0565H62.6987ZM32.4238 65.8511C32.4602 65.3607 32.5113 65.0472 32.5021 64.7354C32.4183 62.1433 32.4584 59.5383 32.1995 56.9625C31.8331 53.3131 30.8488 49.8131 28.9365 46.6339C28.6667 46.1855 28.3568 45.7625 28.0232 45.2649C27.9521 45.4381 27.9212 45.4782 27.9212 45.5164C27.9175 50.6644 27.9139 55.8141 27.9212 60.962C27.9212 61.1479 27.985 61.3867 28.1089 61.5125C29.4925 62.9253 30.8925 64.3198 32.4238 65.8529V65.8511ZM35.1818 65.7417C36.4797 64.4401 37.7667 63.1258 39.0829 61.8443C39.4347 61.5016 39.5915 61.1607 39.5896 60.6576C39.5696 55.7831 39.5787 50.9068 39.5787 46.0323V45.3834C39.5058 45.3743 39.4329 45.3651 39.3618 45.356C35.2019 51.543 34.7443 58.5266 35.1836 65.7435L35.1818 65.7417ZM10.3118 63.0365C13.5456 66.2156 25.349 68.7495 30.7047 67.4151C29.3594 66.0716 28.0615 64.7409 26.718 63.4576C26.4592 63.2097 26.0235 63.0219 25.6698 63.0201C20.7826 62.9909 15.8954 63 11.0081 63.0018C10.793 63.0018 10.5779 63.0219 10.3136 63.0347L10.3118 63.0365ZM36.8079 67.3823C36.8407 67.4388 36.8735 67.4935 36.9045 67.55C38.8331 67.55 40.7654 67.6175 42.6904 67.5354C46.2943 67.3841 49.8162 66.7625 53.1704 65.368C54.5868 64.7792 55.9394 64.0774 57.3284 63.0018H56.3987C52.104 63.0018 47.8055 63.0875 43.5144 62.9599C41.8245 62.9089 40.5868 63.33 39.5222 64.6443C38.7165 65.6396 37.7175 66.4763 36.806 67.3841L36.8079 67.3823ZM13.9576 37.7618C13.9576 40.3357 14.0633 42.7547 13.9212 45.1573C13.8264 46.7542 14.2566 47.9136 15.4925 48.9271C16.5699 49.8112 17.4886 50.8867 18.5678 51.9677V38.8172C17.0639 38.4727 15.5654 38.13 13.9576 37.7636V37.7618ZM48.9339 38.8118V51.9659C50.4014 50.493 51.7904 49.1222 53.1394 47.7167C53.3581 47.4888 53.5094 47.0969 53.5149 46.7761C53.5495 44.7946 53.5313 42.8131 53.5313 40.8315V37.7672C51.9362 38.13 50.425 38.4727 48.9321 38.8118H48.9339ZM2.73209 48.9818C3.08027 50.4474 3.41387 51.7654 3.69642 53.0961C3.79303 53.5537 4.00996 53.6649 4.44199 53.6631C8.37402 53.6503 12.3079 53.6558 16.2399 53.6521C16.4222 53.6521 16.6045 53.6157 16.9162 53.581C15.3868 52.0589 13.9777 50.637 12.5376 49.2461C12.3571 49.0711 12.0144 48.9946 11.7464 48.9927C9.58626 48.9727 7.42793 48.9818 5.26777 48.9818C4.47663 48.9818 3.68548 48.9818 2.73209 48.9818ZM64.7368 49.0912C64.5618 49.031 64.4998 48.9909 64.4378 48.9909C61.4592 48.9854 58.4805 48.98 55.5019 48.9909C55.3232 48.9909 55.1008 49.0912 54.9714 49.2206C53.5641 50.6133 52.1714 52.0206 50.7769 53.4261C50.7404 53.4625 50.7459 53.5409 50.7204 53.6539C51.5935 53.6539 52.4321 53.6539 53.2706 53.6539C56.5227 53.6539 59.7748 53.6612 63.025 53.6394C63.262 53.6394 63.6631 53.4735 63.7068 53.3094C64.086 51.9131 64.4013 50.4985 64.7349 49.0912H64.7368ZM4.30892 37.4555C6.75709 39.911 9.18157 42.3446 11.5951 44.7672V37.4555H4.30892ZM55.8829 44.7271C58.2909 42.3154 60.7191 39.8836 63.1344 37.4646H55.8829V44.7271ZM2.45866 39.2638V46.5828H9.7485C7.34043 44.1638 4.936 41.7503 2.45866 39.2638ZM57.7422 46.5956H65.043V39.2638C62.5638 41.7539 60.1594 44.1675 57.7422 46.5956Z" fill="#22B573"/>
<path d="M35.1106 0C36.157 0.189583 37.2271 0.295312 38.2461 0.583333C45.6161 2.65963 50.2955 7.45026 51.9617 14.9151C54.1237 24.6094 47.933 34.3018 38.2315 36.7609C28.1909 39.3057 18.0317 33.1497 15.6455 22.8247C14.0633 15.9779 15.9864 9.97864 21.0377 5.08047C24.0747 2.13099 27.7789 0.525 31.9916 0.10026C32.1229 0.0875 32.2505 0.0346354 32.3817 0C33.2914 0 34.201 0 35.1106 0ZM25.5823 4.65755C25.914 4.65755 26.1273 4.65755 26.3424 4.65755C27.9794 4.65755 29.6164 4.64114 31.2534 4.66302C33.1619 4.68854 34.6367 5.92812 34.8481 7.64896C35.1125 9.81458 33.6523 11.5828 31.4685 11.632C29.1953 11.6849 26.9203 11.6375 24.6471 11.6575C23.7885 11.6648 23.2562 12.1643 23.2781 12.857C23.2981 13.5333 23.8067 13.9562 24.638 13.9818C25.5239 14.0109 26.4172 13.969 27.2922 14.0729C29.3047 14.3135 30.6554 16.3898 30.1304 18.3513C29.682 20.0338 28.3495 20.9872 26.3843 20.9945C23.7229 21.0055 21.0633 20.9982 18.4018 20.9982C18.163 20.9982 17.9224 20.9982 17.638 20.9982C18.2049 24.5656 19.6815 27.5516 22.1205 30.0544C22.2718 30.2094 22.5471 30.3206 22.7659 30.3206C27.1099 30.3351 31.4521 30.3351 35.7961 30.3279C36.6784 30.3279 37.1997 29.8867 37.2179 29.1867C37.2362 28.4539 36.7075 28.0219 35.7851 28C34.9229 27.9799 34.0497 28.0273 33.2002 27.9107C31.0784 27.619 29.7841 25.4734 30.4385 23.4299C30.9435 21.8513 32.214 21.0036 34.1281 21C39.0846 20.9927 44.0429 20.9982 48.9994 20.9982C49.2656 20.9982 49.5336 20.9982 49.8781 20.9982C49.931 20.1924 49.9802 19.4596 50.033 18.6575C49.0833 18.6575 48.2448 18.6703 47.408 18.6557C45.5323 18.6229 44.5151 17.7297 44.2435 15.8703C44.1705 15.3763 43.9299 15.1484 43.4286 15.163C42.8836 15.1776 42.3349 15.1885 41.7916 15.1539C39.5093 15.0081 37.9963 13.0047 38.5159 10.8336C38.8713 9.34791 40.151 8.25052 41.6932 8.2013C43.1351 8.15573 44.5807 8.19219 46.0974 8.19219C41.5547 2.29323 32.1302 0.432031 25.5823 4.65755ZM49.2802 23.3971C49.1708 23.3734 49.1052 23.3443 49.0395 23.3443C43.9901 23.3406 38.9424 23.3388 33.8929 23.3461C33.6523 23.3461 33.388 23.4026 33.1765 23.5138C32.6989 23.7672 32.5367 24.2029 32.6369 24.7279C32.7609 25.3732 33.2294 25.6284 33.8164 25.6575C34.6786 25.6995 35.5463 25.6503 36.4067 25.7068C38.288 25.8307 39.739 27.6154 39.5221 29.4838C39.2961 31.4234 37.8815 32.6539 35.827 32.663C32.6661 32.6758 29.5052 32.6667 26.3442 32.6667C26.1273 32.6667 25.9122 32.6667 25.5859 32.6667C33.9039 37.9568 46.1794 33.8661 49.2783 23.3971H49.2802ZM17.4922 18.6521C20.6294 18.6521 23.6737 18.6667 26.7179 18.6411C27.4635 18.6357 27.8955 18.1526 27.8955 17.4945C27.8955 16.8419 27.4672 16.3862 26.7161 16.3406C25.8557 16.2896 24.988 16.3406 24.1276 16.2786C22.3685 16.1547 21.0304 14.731 20.9448 12.9482C20.8627 11.2565 22.1315 9.6888 23.8268 9.40989C24.206 9.34791 24.5942 9.32239 24.9789 9.32239C27.0935 9.31328 29.2062 9.32604 31.3208 9.31146C32.07 9.30599 32.5221 8.87396 32.5494 8.21771C32.5786 7.56875 32.1448 7.09661 31.4265 7.00182C31.3153 6.98724 31.2005 6.98906 31.0856 6.98906C28.3349 6.98906 25.5841 6.97812 22.8351 7.00547C22.5635 7.00729 22.2281 7.17318 22.033 7.37187C20.6914 8.72448 19.6396 10.2867 18.8721 12.0312C17.957 14.1112 17.4466 16.2805 17.4922 18.6521ZM49.7961 16.3023C49.6375 14.618 48.8718 12.25 48.006 10.85C47.9021 10.6823 47.6286 10.5273 47.4299 10.5237C45.6143 10.5 43.7968 10.5 41.9794 10.5182C41.2539 10.5255 40.769 10.9849 40.738 11.6174C40.7052 12.2628 41.2028 12.7768 41.9502 12.8315C42.3349 12.8607 42.7213 12.8406 43.1078 12.8406C45.2406 12.8424 46.1484 13.6081 46.5731 15.6953C46.6187 15.9232 46.8976 16.2622 47.0872 16.275C47.9841 16.337 48.8882 16.3023 49.7942 16.3023H49.7961Z" fill="black"/>
<path d="M8.08223 16.3752V18.6101H5.8291V16.3752H8.08223Z" fill="black"/>
<path d="M12.7234 18.6138H10.4849V16.3716H12.7234V18.6138Z" fill="black"/>
<path d="M54.7417 18.6138V16.3716H56.9766V18.6138H54.7417Z" fill="black"/>
<path d="M61.6579 16.3734V18.6138H59.4011V16.3734H61.6579Z" fill="black"/>
<path d="M5.83301 27.9526V25.725H8.08066V27.9526H5.83301Z" fill="black"/>
<path d="M59.3918 27.9435V25.7323H61.6486V27.9435H59.3918Z" fill="black"/>
<path d="M8.08227 30.3789V32.612H5.84009V30.3789H8.08227Z" fill="black"/>
<path d="M59.4048 32.621V30.3898H61.6452V32.621H59.4048Z" fill="black"/>
<path d="M5.8291 23.2951V21.0456H8.06582V23.2951H5.8291Z" fill="black"/>
<path d="M61.667 21.0383V23.275H59.4175V21.0383H61.667Z" fill="black"/>
</svg>
