<svg width="179" height="144" viewBox="0 0 179 144" fill="none" xmlns="http://www.w3.org/2000/svg">
<path d="M131.703 49.4156L139.129 1.38015C139.385 -0.252989 141.497 -0.515711 142.045 1.01802C145.892 11.7612 152.414 36.8618 136.504 52.1849L131.703 49.4156Z" fill="#B7D331"/>
<path d="M128.382 60.6416L83.1694 78.67C81.6331 79.2807 80.3316 77.5978 81.3771 76.3481C88.6885 67.5789 107.024 49.2097 128.332 55.1031L128.382 60.6416Z" fill="#B7D331"/>
<path d="M140.587 57.1694L178.374 87.8156C179.662 88.8594 178.822 90.812 177.215 90.5138C165.985 88.4049 140.985 81.3612 135.765 59.9174L140.587 57.1765V57.1694Z" fill="#B7D331"/>
<path d="M136.515 56.9776L128.724 57.6978L136.728 143.998L144.518 143.278L136.515 56.9776Z" fill="#B7D331"/>
<path d="M139.983 59.7788C141.547 55.4521 139.303 50.6784 134.969 49.1165C130.635 47.5545 125.853 49.7957 124.289 54.1224C122.724 58.4491 124.969 63.2228 129.303 64.7847C133.637 66.3467 138.418 64.1055 139.983 59.7788Z" fill="#AABC02"/>
<path d="M137.948 59.1792C136.718 62.3815 133.112 63.9863 129.904 62.7579C126.696 61.5295 125.089 57.9295 126.319 54.7271C127.55 51.5247 131.156 49.92 134.363 51.1484C137.571 52.3768 139.178 55.9768 137.948 59.1792Z" fill="white"/>
<path opacity="0.25" d="M109.122 65.8818L96.832 70.9375" stroke="#89960B" stroke-width="0.67" stroke-miterlimit="10" stroke-linecap="round"/>
<path opacity="0.25" d="M121.924 60.6206L113.752 63.9792" stroke="#89960B" stroke-width="0.67" stroke-miterlimit="10" stroke-linecap="round"/>
<path opacity="0.25" d="M148.46 67.1175L142.543 62.4595" stroke="#89960B" stroke-width="0.67" stroke-miterlimit="10" stroke-linecap="round"/>
<path opacity="0.25" d="M161.867 77.6761L151.426 69.4536" stroke="#89960B" stroke-width="0.67" stroke-miterlimit="10" stroke-linecap="round"/>
<path opacity="0.25" d="M172.734 86.2394L165.8 80.772" stroke="#89960B" stroke-width="0.67" stroke-miterlimit="10" stroke-linecap="round"/>
<path opacity="0.25" d="M136.696 30.0596L134.648 43.1744" stroke="#89960B" stroke-width="0.67" stroke-miterlimit="10" stroke-linecap="round"/>
<path opacity="0.25" d="M138.83 16.4053L137.464 25.1248" stroke="#89960B" stroke-width="0.67" stroke-miterlimit="10" stroke-linecap="round"/>
<path opacity="0.25" d="M127.642 55.2593C128.61 52.7528 131.426 51.496 133.937 52.4617" stroke="#89960B" stroke-width="0.52" stroke-miterlimit="10" stroke-linecap="round"/>
<path opacity="0.25" d="M136.739 36.7461C135.772 39.2526 132.955 40.5094 130.445 39.5437" stroke="#89960B" stroke-width="0.52" stroke-miterlimit="10" stroke-linecap="round"/>
<path d="M38.3796 52.4048L44.0001 16.0447C44.1939 14.8085 45.7928 14.6096 46.2074 15.7706C49.1199 23.9026 54.0566 42.9022 42.0136 54.5009L38.3796 52.4048Z" fill="#B7D331"/>
<path d="M35.8655 60.9022L1.64208 74.5487C0.479227 75.0109 -0.505967 73.7371 0.285419 72.7911C5.81974 66.1533 19.6986 52.2489 35.8278 56.7099L35.8655 60.9022Z" fill="#B7D331"/>
<path d="M45.1037 58.2739L73.7066 81.4713C74.681 82.2614 74.0458 83.7394 72.8291 83.5137C64.3284 81.9174 45.4052 76.5856 41.4536 60.3539L45.1037 58.2793V58.2739Z" fill="#B7D331"/>
<path d="M42.0212 58.1287L36.1245 58.6738L42.1829 123.998L48.0797 123.453L42.0212 58.1287Z" fill="#B7D331"/>
<path d="M44.6467 60.249C45.8309 56.974 44.1317 53.3606 40.8512 52.1783C37.5708 50.996 33.9515 52.6924 32.7672 55.9675C31.583 59.2425 33.2822 62.8559 36.5627 64.0382C39.8431 65.2205 43.4624 63.5241 44.6467 60.249Z" fill="#AABC02"/>
<path d="M43.1064 59.7953C42.175 62.2193 39.4456 63.434 37.0176 62.5041C34.5896 61.5743 33.3729 58.8493 34.3042 56.4253C35.2356 54.0013 37.9651 52.7866 40.3931 53.7165C42.8211 54.6463 44.0378 57.3713 43.1064 59.7953Z" fill="white"/>
<path opacity="0.25" d="M21.2867 64.8687L11.9839 68.6955" stroke="#89960B" stroke-width="0.67" stroke-miterlimit="10" stroke-linecap="round"/>
<path opacity="0.25" d="M30.9771 60.8862L24.7914 63.4285" stroke="#89960B" stroke-width="0.67" stroke-miterlimit="10" stroke-linecap="round"/>
<path opacity="0.25" d="M51.0632 65.8039L46.5841 62.2781" stroke="#89960B" stroke-width="0.67" stroke-miterlimit="10" stroke-linecap="round"/>
<path opacity="0.25" d="M61.2114 73.7965L53.3083 67.5725" stroke="#89960B" stroke-width="0.67" stroke-miterlimit="10" stroke-linecap="round"/>
<path opacity="0.25" d="M69.4375 80.2782L64.1885 76.1396" stroke="#89960B" stroke-width="0.67" stroke-miterlimit="10" stroke-linecap="round"/>
<path opacity="0.25" d="M42.1589 37.7534L40.6084 47.6806" stroke="#89960B" stroke-width="0.67" stroke-miterlimit="10" stroke-linecap="round"/>
<path opacity="0.25" d="M43.774 27.4177L42.7404 34.0179" stroke="#89960B" stroke-width="0.67" stroke-miterlimit="10" stroke-linecap="round"/>
<path opacity="0.25" d="M35.3057 56.8281C36.0378 54.9308 38.1697 53.9795 40.0701 54.7105" stroke="#89960B" stroke-width="0.52" stroke-miterlimit="10" stroke-linecap="round"/>
<path opacity="0.25" d="M42.1911 59.4675C41.4589 61.3648 39.327 62.3161 37.4266 61.5852" stroke="#89960B" stroke-width="0.52" stroke-miterlimit="10" stroke-linecap="round"/>
</svg>
